<?xml version="1.0" encoding="iso-8859-1"?>
<!-- Generator: Adobe Illustrator 19.0.0, SVG Export Plug-In . SVG Version: 6.00 Build 0)  -->
<svg version="1.1" id="Layer_1" xmlns="http://www.w3.org/2000/svg" xmlns:xlink="http://www.w3.org/1999/xlink" x="0px" y="0px"
	 viewBox="0 0 511.998 511.998" style="enable-background:new 0 0 511.998 511.998;" xml:space="preserve">
<g>
	<g>
		<path d="M272.469,174.483v-23.029c7.671,2.342,16.538,3.548,26.545,3.548c4.475,0,9.178-0.238,14.094-0.715
			c24.207-2.352,50.064-10.424,65.874-20.566c33.703-21.621,43.533-66.63,21.913-100.333v-0.001
			c-21.621-33.701-66.63-43.532-100.333-21.911C285.421,21.19,268.175,40.075,256,60.123
			c-12.176-20.049-29.421-38.933-44.563-48.646c-33.706-21.623-78.714-11.792-100.335,21.91v0.001
			c-21.62,33.702-11.79,78.712,21.913,100.333c15.809,10.141,41.666,18.215,65.874,20.566c4.918,0.478,9.617,0.715,14.094,0.715
			c10.007,0,18.874-1.206,26.545-3.549v23.03c-68.429,7.664-121.66,62.45-121.66,128.692c0,30.127,21.055,71.454,64.371,126.342
			c30.635,38.82,60.785,69.373,62.053,70.655l11.706,11.827l11.706-11.827c1.268-1.281,31.417-31.833,62.053-70.655
			c43.315-54.888,64.371-96.216,64.371-126.342C394.128,236.935,340.897,182.147,272.469,174.483z M282.877,79.341
			c11.087-19.056,26.159-34.164,35.471-40.14c6.617-4.244,14.029-6.27,21.362-6.27c13.074,0,25.891,6.444,33.46,18.242v-0.001
			c11.813,18.416,6.442,43.009-11.973,54.821c-9.312,5.974-29.33,13.376-51.273,15.507c-20.725,2.008-33.063-1.862-36.1-6.597
			c-0.719-1.121-1.166-2.712-1.308-4.704c0.022-0.878,0.018-1.767-0.004-2.664C272.872,101,275.905,91.326,282.877,79.341z
			 M239.484,110.201c-0.141,1.991-0.589,3.582-1.308,4.704c-3.038,4.734-15.373,8.607-36.101,6.596
			c-21.943-2.131-41.96-9.533-51.273-15.507c-18.415-11.812-23.786-36.404-11.973-54.821v0.001
			c11.812-18.415,36.406-23.784,54.821-11.973c9.312,5.974,24.385,21.083,35.471,40.14c6.971,11.985,10.004,21.659,10.366,28.197
			C239.466,108.434,239.462,109.323,239.484,110.201z M304.081,408.883c-18.205,23.088-36.599,43.51-48.084,55.831
			c-11.436-12.268-29.726-32.572-47.899-55.602c-1.588-2.012-3.129-3.988-4.633-5.934h30.566v-32.94h-54.224
			c-6.518-9.913-11.637-18.627-15.61-26.234h20.987v-32.94h-33.568c-0.589-3.179-0.808-5.793-0.808-7.889
			c0-6.271,0.661-12.403,1.908-18.344h81.314v-32.94h-67.162c18.624-27.244,51.612-45.393,89.13-45.393
			c58.002,0,105.19,43.369,105.19,96.677C361.188,315.605,353.769,345.865,304.081,408.883z"/>
	</g>
</g>
<g>
</g>
<g>
</g>
<g>
</g>
<g>
</g>
<g>
</g>
<g>
</g>
<g>
</g>
<g>
</g>
<g>
</g>
<g>
</g>
<g>
</g>
<g>
</g>
<g>
</g>
<g>
</g>
<g>
</g>
</svg>
